<svg version="1.0" xmlns="http://www.w3.org/2000/svg" viewBox="0 0 101 18"><path d="M1.2 16.4C.4 15.4 0 13.9 0 12V5.8c0-1.9.4-3.4 1.2-4.4C2 .4 3.4-.1 5.4-.1c1.9 0 3.2.4 4 1.3s1.2 2.1 1.2 3.8v1.5h-4V4.7c0-.7-.1-1.2-.2-1.6-.1-.3-.5-.5-1-.5s-1 .2-1.1.6c-.2.5-.3 1-.3 1.6V13c0 .7.1 1.2.3 1.6s.5.6 1.1.6c.5 0 .9-.2 1-.6.2-.4.2-.9.2-1.6v-1.7h3.9v1.5c0 1.6-.4 2.9-1.2 3.9-.8.9-2.1 1.4-4 1.4-1.9-.2-3.3-.7-4.1-1.7zM15.3.2h4.5l3.3 17.4h-3.6l-.6-3.7h-2.6l-.6 3.7H12L15.3.2zm3.2 11.5l-.9-6.8-.9 6.8h1.8zM26 3.1h-2.7V.2h9.4v2.9H30v14.5h-4V3.1zM39.7.2h6.9V2h-4.4v5.7h3.6v1.7h-3.6v6.3h4.5v1.8h-7V.2zm9.1 0h1.7l5.1 11.6V.2h2.1v17.4h-1.6L51 5.7v11.9h-2.1V.2h-.1zm11.4 0h6.9V2h-4.4v5.7h3.6v1.7h-3.6v6.3h4.5v1.8h-7V.2zm9 0h3.6c1.8 0 3.1.4 4 1.1s1.3 1.9 1.3 3.6c0 2.3-.7 3.6-2.2 4.1l2.5 8.7H76l-2.3-8.2h-1.9v8.2h-2.5L69.2.2zm3.4 7.5c1.1 0 1.8-.2 2.3-.6.5-.4.7-1.2.7-2.3 0-.7-.1-1.3-.2-1.7-.1-.4-.4-.7-.9-.9-.4-.2-1-.3-1.7-.3h-1.1v5.7c0 .1.9.1.9.1zm8.7 8.6c-.7-1-1.1-2.5-1.1-4.5V6.1c0-1.4.1-2.5.4-3.4.3-.9.8-1.5 1.5-2S83.8 0 85 0c1.6 0 2.8.4 3.6 1.2.7.8 1.1 2.1 1.1 3.9v.7h-2.3v-.6c0-.8-.1-1.5-.2-1.9-.1-.5-.3-.8-.7-1-.3-.3-.8-.4-1.4-.4-.7 0-1.2.2-1.5.5-.3.4-.6.8-.7 1.3-.1.5-.1 1.1-.1 2v6.5c0 1.3.2 2.3.5 2.9s1 .9 1.9.9 1.6-.3 1.9-1c.3-.6.5-1.7.5-3.1v-1.2h-2.3V9h4.5v8.6h-1.6l-.2-2c-.6 1.5-1.6 2.2-3.2 2.2s-2.8-.5-3.5-1.5zm13.6-4.8L90.9.2h2.3L96 8.6 98.7.2h2.3l-3.8 11.3v6.1h-2.4v-6.1h.1z" fill="#111"/></svg>