<svg version="1.1" id="Layer_1" xmlns="http://www.w3.org/2000/svg" xmlns:xlink="http://www.w3.org/1999/xlink" x="0" y="0" viewBox="0 0 34 38" xml:space="preserve"><style>.st2{fill:#f06351}</style><defs><path id="SVGID_1_" d="M0 0h34v38H0z"/></defs><clipPath id="SVGID_2_"><use xlink:href="#SVGID_1_" overflow="visible"/></clipPath><g clip-path="url(#SVGID_2_)"><path d="M6.2 20.9v-2.3c6.8-.9 13.7-1.4 20.6-1.3 0 .6 0 1.2-.1 1.8 2-.9 4-1.5 6.1-1.8a16.7 16.7 0 00-7-8.3C22.7 7.1 19 6.3 15.2 6.6c-3.7.4-7.1 2-9.9 4.5a16.8 16.8 0 00-5.1 9.5l6 .3zm21.6 3.6c-1.2 1.3-1.4 1.2-1.4 3.5v9.3c2.3-1.5 4.3-3.6 5.6-6.1a16.94 16.94 0 001.7-11.1c-2.1 1.2-4.1 2.7-5.9 4.4zM6.5 26s-3.9-1.5-5.3-1.8c-.4-.2-.8-.3-1.2-.3.1 2.9 1 5.8 2.5 8.2 1.6 2.5 3.7 4.5 6.3 5.9L6.5 26z" fill="#fdc305"/><path class="st2" d="M26.8 17.3c0-5.6-.4-11.1-1.4-16.6 0 0-.1-1.3-.9-.2-.6 1.3-1 2.6-1.2 4-4.3-.3-8.7-.2-13 .3C9.4 2 8 .8 7.3 1c-.7.3-.7 3.4-.7 3.4l-.3 14.2c6.8-.9 13.6-1.3 20.5-1.3z"/><path d="M12.7 14.1c0-.1 1 .7 1.4.9.4.2.6.4.6.6 0 .2-.3.3-.6.3s-.9-.1-1-.3h1.3c-.7-.3-1.3-.9-1.7-1.5zm7.6.2l-1.1 1.3c0 .1-.2.4.2.3l1.2-.3c.1 0 .1-.2-.1-.2s-.7.1-1 .1l.8-1.2s.1-.2 0 0zm-3.2 6.1c.5-.2.9-.6 1.1-1 .3-.7 0-.9-.4-1-.6-.1-1.2 0-1.8.3-.4.4-.3.7-.1 1 .4.3.8.5 1.2.7z"/><path class="st2" d="M16.7 21.7c-.1.2-.3.4-.5.6-.3.2-.6.4-1 .4a2.6 2.6 0 01-2-.8c-.1-.1-.2-.2-.4-.3 0 0 .8 4.1 2.6 4.8 1.9.7 2.2-.8 2.2-1.1.1-1.1-.2-2.3-.8-3.3 0-.4 0-.2-.1-.3z"/><path d="M15 22.8c-.5-.1-.9-.2-1.3-.5-.4-.2-.8-.6-1-1v-.2h.2c.5.7 1.3 1.2 2.2 1.3.3 0 .7-.1 1-.3.3-.2.5-.4.7-.7l.1-.2.1.2s.4.8 1 .8 1.1-.4 1.6-1.3h.2l.1.1v.1c-.7 1-1.3 1.5-1.9 1.4-.2 0-.5-.1-.7-.3-.2-.1-.4-.3-.5-.5-.2.3-.5.5-.8.7-.3.3-.6.4-1 .4z"/><path class="st2" d="M26.8 19.1c-1.8 1.6-3.6 3.4-5.2 5.2-1.6 1.8-3.4 3.5-5.4 4.9-.2-.5-1.7-1.5-1.7-1.5s-3.2-2.2-5.3-3.9c-1.1-.9-2.2-2-3.2-3l-2-.1c2.9 4.2 7.3 7.4 12.2 8.9.9-.1 3.3-1.9 5.2-3.3 2.2-1.8 4.2-3.8 6.1-6 .5-.6.9-1.3 1.2-2-1.1.5-1.9.8-1.9.8z"/></g></svg>